<svg width="68" height="71" viewBox="0 0 68 71" fill="none" xmlns="http://www.w3.org/2000/svg">
<path d="M41.2822 21.0756C40.1814 20.7656 38.997 16.422 37.9661 15.4171C33.4044 10.9707 27.6961 13.0439 23.8108 17.3962C19.5472 22.1723 17.2712 32.3678 19.5543 38.8314C22.0484 45.8927 30.1198 51.0513 36.4813 52.1274C43.3076 53.2822 51.9719 50.3259 55.1158 42.7896C56.3658 39.7931 56.5652 36.1277 56.7739 32.8942C57.2313 25.8045 57.043 18.6833 56.6254 11.5984C56.5749 10.7414 56.8541 8.34559 55.784 7.97473C52.2725 6.75773 48.3877 6.22591 44.7468 5.88417C37.4383 5.19817 30.2045 5.33792 22.9199 4.23959C20.7303 3.90946 18.5164 4.0166 16.3124 4.0166C14.6199 4.0166 13.8419 4.76657 13.0211 6.58102C10.0386 13.1741 8.66267 21.2134 7.27975 28.3786C5.63136 36.9194 5.34283 45.5873 4.13688 54.1901C3.78664 56.6886 4.04105 58.3234 5.69594 60.3224C7.1181 62.0404 9.90955 62.8632 11.7095 63.6116C18.2134 66.3157 24.2399 67.4821 31.1854 66.8171C36.9331 66.2668 43.2019 65.5737 48.8548 64.1133C53.8207 62.8304 58.8991 62.2179 64 62.2179" stroke="#14BECA" stroke-width="7" stroke-linecap="round"/>
</svg>
